<svg width="76" height="65" viewBox="0 0 76 65" fill="none" xmlns="http://www.w3.org/2000/svg">
<g clip-path="url(#clip0_2448_7968)">
<g opacity="0.85">
<path d="M-0.806641 46.9714H14.2149V49.1329H-0.806641V46.9714Z" fill="black"/>
<path d="M-0.806641 42.8255H14.2149V44.9946H-0.806641V42.8255Z" fill="black"/>
<path d="M3.479 38.6872H9.92224V40.8564H3.479V38.6872Z" fill="black"/>
<path d="M3.479 34.549H9.92224V36.7181H3.479V34.549Z" fill="black"/>
<path d="M3.479 30.4107H9.92224V32.5798H3.479V30.4107Z" fill="black"/>
<path d="M3.479 26.2647H9.92224V28.4339H3.479V26.2647Z" fill="black"/>
<path d="M14.2149 22.1264H-0.806641V24.2956H14.2149V22.1264Z" fill="black"/>
<path d="M14.2149 17.9882H-0.806641V20.1573H14.2149V17.9882Z" fill="black"/>
<path d="M16.3574 44.9946H39.4598C39.85 44.3254 40.1408 43.5947 40.3169 42.8255H16.3574V44.9946Z" fill="black"/>
<path d="M37.6615 34.549H20.6504V36.7181H39.4598C38.97 35.8873 38.3655 35.1566 37.6615 34.549Z" fill="black"/>
<path d="M20.6504 30.4107V32.5798H37.6615C38.3809 31.9721 38.9853 31.2414 39.4598 30.4107H20.6504Z" fill="black"/>
<path d="M39.4599 22.1264H16.3574V24.2956H40.3169C40.1179 23.5264 39.8271 22.7957 39.4599 22.1264Z" fill="black"/>
<path d="M32.3585 17.9882H16.3574V20.1573H37.8758C36.4371 18.8189 34.4858 17.9882 32.3585 17.9882Z" fill="black"/>
<path d="M27.086 26.2647H20.6504V28.4339H27.086V26.2647Z" fill="black"/>
<path d="M33.5298 28.4339H40.2638C40.4551 27.7416 40.5546 27.0109 40.5546 26.2647H33.5298V28.4339Z" fill="black"/>
<path d="M20.6504 38.6872H27.086V40.8564H20.6504V38.6872Z" fill="black"/>
<path d="M33.5298 38.6872V40.8564H40.5546C40.5546 40.1102 40.4551 39.3795 40.2638 38.6872H33.5298Z" fill="black"/>
<path d="M16.3574 49.1175L32.3585 49.1406C34.5011 49.1406 36.4371 48.3099 37.8834 46.9714H16.3574V49.1175Z" fill="black"/>
<path d="M42.1143 46.9714H52.8428V49.1329H42.1143V46.9714Z" fill="black"/>
<path d="M42.1143 42.8255H52.8428V44.9946H42.1143V42.8255Z" fill="black"/>
<path d="M46.4009 38.6872H52.8441V40.8564H46.4009V38.6872Z" fill="black"/>
<path d="M46.4009 34.549H52.8441V36.7181H46.4009V34.549Z" fill="black"/>
<path d="M55.8272 22.1264H42.1143V24.2956H56.5694L55.8272 22.1264Z" fill="black"/>
<path d="M54.4038 17.9882H42.1143V20.1573H55.1461L54.4038 17.9882Z" fill="black"/>
<path d="M65.7153 46.9714H76.4516V49.1329H65.7153V46.9714Z" fill="black"/>
<path d="M65.7153 42.8255H76.4516V44.9946H65.7153V42.8255Z" fill="black"/>
<path d="M65.7153 38.6872H72.1586V40.8564H65.7153V38.6872Z" fill="black"/>
<path d="M65.7153 34.549H72.1586V36.7181H65.7153V34.549Z" fill="black"/>
<path d="M65.7154 32.5798H72.1586V30.4107H65.7154H59.8843L59.2798 32.1645L58.6752 30.4107H52.8441H46.4009V32.5798H52.8441V30.5876L53.5252 32.5798H65.0343L65.7154 30.5876V32.5798Z" fill="black"/>
<path d="M72.1582 26.2647H61.3072L60.5649 28.4339H72.1582V26.2647Z" fill="black"/>
<path d="M64.1617 17.9882L63.4194 20.1573H76.4514V17.9882H64.1617Z" fill="black"/>
<path d="M59.2799 49.1175L60.0221 46.9714H58.5376L59.2799 49.1175Z" fill="black"/>
<path d="M57.8562 44.9946H60.7029L61.4681 42.8255H57.0986L57.8562 44.9946Z" fill="black"/>
<path d="M56.4099 40.8564H62.1492L62.9068 38.6872H55.6523L56.4099 40.8564Z" fill="black"/>
<path d="M54.9713 36.7181H63.5954L64.3301 34.549H54.229L54.9713 36.7181Z" fill="black"/>
<path d="M46.4009 28.4339H57.9941L57.2519 26.2647H46.4009V28.4339Z" fill="black"/>
<path d="M61.9956 24.2956H76.4509V22.1264H62.7303L61.9956 24.2956Z" fill="black"/>
</g>
</g>
<defs>
<clipPath id="clip0_2448_7968">
<rect width="76" height="64" fill="white" transform="translate(0 0.5)"/>
</clipPath>
</defs>
</svg>
