<svg width="87" height="47" viewBox="0 0 87 47" fill="none" xmlns="http://www.w3.org/2000/svg">
<g clip-path="url(#clip0_4485_16104)">
<path d="M58.9582 15.9051C57.4221 15.9051 56.2193 16.4562 55.1179 17.6018V16.1661H52.0892V30.2472H55.3498V22.0828C55.3498 20.2121 56.4657 19.0374 58.1467 19.0374C58.451 19.0374 58.7264 19.0809 58.9148 19.11L61.1755 16.1371C60.2915 15.9776 59.5379 15.9051 58.9582 15.9051ZM87.0721 16.1661H83.3187L79.8407 20.7631L76.3627 16.1661H72.6094L77.9133 23.2574L72.6094 30.2472H76.4497L79.8262 25.7952L83.2028 30.2472H87.0721L81.7246 23.2719L87.0721 16.1661ZM18.6134 13.0048C17.4976 14.4984 17.2367 14.9915 16.1643 14.9915H0.12207V34.0756H6.41145C7.83164 34.0756 9.20834 33.394 10.0923 32.2484C11.2372 30.7257 11.3966 30.2617 12.5124 30.2617H28.5837V11.1776H22.2508C20.8307 11.1776 19.454 11.8592 18.6134 13.0048ZM23.5986 25.3311H16.8889C15.4253 25.3311 14.092 25.9402 13.208 27.1293C12.0632 28.652 11.8313 29.116 10.759 29.116H5.06373V19.9655H11.7734C13.237 19.9655 14.5703 19.284 15.4543 18.1383C16.5991 16.6447 16.9179 16.1951 17.9468 16.1951H23.5841V25.3311H23.5986ZM47.6837 20.6326C49.1039 19.835 50.1038 18.4139 50.1038 16.5432C50.1038 13.8024 47.988 11.1631 44.9303 11.1631H35.7281V30.2472H44.9158C48.2489 30.2472 50.5531 27.8834 50.5531 24.9106C50.5531 23.1559 49.756 21.6332 47.6837 20.6326ZM38.9742 14.1504H44.655C46.0751 14.1504 46.9157 15.4846 46.9157 16.6737C46.9157 18.1238 45.6549 19.11 44.4666 19.11H38.9742V14.1504ZM44.4521 27.2743H38.9742V22.0828H44.655C46.1186 22.0828 47.3069 23.3444 47.3069 24.6351C47.2924 26.0852 45.7998 27.2743 44.4521 27.2743ZM69.3488 26.2012C68.8126 27.0423 67.7692 27.5354 66.6243 27.5354C64.8274 27.5354 63.3202 26.3172 63.3202 24.4465H73.0586C73.218 23.881 73.247 23.6054 73.247 23.1124C73.247 18.8344 70.595 15.9051 66.6098 15.9051C62.6971 15.9051 59.9292 18.6894 59.9292 23.2284C59.9292 27.6514 62.5812 30.5227 66.6823 30.5227C69.5661 30.5227 72.0877 29.116 72.8123 26.2157C72.8413 26.2012 69.3488 26.2012 69.3488 26.2012ZM66.6243 18.8779C68.4213 18.8779 69.8125 20.0236 69.769 21.7347H63.3637C63.3637 20.0671 64.8274 18.8779 66.6243 18.8779Z" fill="black"/>
</g>
<defs>
<clipPath id="clip0_4485_16104">
<rect width="87" height="47" fill="white"/>
</clipPath>
</defs>
</svg>
